<?xml version="1.0" encoding="UTF-8"?>
<svg width="125px" height="43px" viewBox="0 0 125 43" version="1.1" xmlns="http://www.w3.org/2000/svg" xmlns:xlink="http://www.w3.org/1999/xlink">
    <!-- Generator: sketchtool 63.1 (101010) - https://sketch.com -->
    <title>92841CD2-3D1E-4B2F-A0BF-C3842708E5C9</title>
    <desc>Created with sketchtool.</desc>
    <defs>
        <linearGradient x1="-18.5964391%" y1="40.5155152%" x2="62.6570992%" y2="53.3943411%" id="linearGradient-1">
            <stop stop-color="#00B993" offset="0%"></stop>
            <stop stop-color="#00B993" offset="0%"></stop>
            <stop stop-color="#0080BC" offset="100%"></stop>
        </linearGradient>
    </defs>
    <g id="Page-1" stroke="none" stroke-width="1" fill="none" fill-rule="evenodd">
        <g id="Home-Page" transform="translate(-129.000000, -32.000000)">
            <g id="Sunbird-Logo" transform="translate(129.000000, 32.000000)">
                <path d="M99.8406212,22.9986566 C100.171768,23.0086525 100.502021,22.9627899 100.813416,22.8635637 C101.062059,22.7776487 101.288805,22.6494019 101.480551,22.486235 C101.651135,22.3355872 101.782595,22.1544425 101.865948,21.9551799 C101.948422,21.7515398 101.993285,21.5376708 101.998844,21.3216404 C102.007929,21.1160245 101.963387,20.9113006 101.868606,20.7230388 C101.783895,20.5648013 101.656113,20.4272281 101.496499,20.3224183 C101.321302,20.214281 101.124888,20.135326 100.917074,20.0894994 C100.676865,20.0330664 100.429511,20.0033301 100.180834,20.0009902 L100.119702,20.0009902 C99.7858699,19.9919956 99.4535882,20.0443616 99.144249,20.1547167 C98.894592,20.245955 98.6692402,20.3815745 98.4824296,20.553008 C98.1938521,20.8264289 98.0244572,21.1802224 98.0040059,21.5522302 C97.9726081,21.9376118 98.1268418,22.3169007 98.4292714,22.5980361 C98.7216414,22.8519177 99.1974072,22.9893399 99.8406212,22.9986566 Z" id="Path" fill="#0080BB" fill-rule="nonzero"></path>
                <path d="M21.2891187,1.58521804e-07 C26.934259,1.58521804e-07 32.3481514,2.26522225 36.3396268,6.29727023 C40.3311023,10.3293182 42.5731466,15.797854 42.5724635,21.4996859 C42.5724635,30.1957337 37.3860364,38.0354638 29.4317167,41.3630541 C21.477397,44.6906444 12.3217409,42.8507457 6.23421293,36.7013392 C0.146684933,30.5519327 -1.67381218,21.3041079 1.62165559,13.2703094 C4.91712337,5.23651083 12.679533,-0.00105209097 21.2891187,1.58521804e-07 Z M12.0797314,8.68781952 C11.1783145,8.4807302 10.239572,8.50848588 9.35169199,8.76847912 C9.38131659,8.79970219 9.401281,8.82051757 9.41383926,8.83352718 L9.43154962,8.85174064 L9.68915485,8.89076948 C11.2293074,9.0312672 12.7032452,9.58954466 13.9550976,10.5065633 C14.4596653,10.8573544 14.926728,11.2602194 15.3487419,11.7086515 C15.7377258,12.1457745 16.1601984,12.6843725 16.289001,13.202155 C16.4178036,13.7199376 16.7063215,14.1414491 16.8428523,14.6254066 C17.2910854,16.2177832 17.4765612,18.5282904 16.4461402,19.9385324 C16.0880689,20.4328977 15.4723924,20.9298648 15.9489621,21.7104416 C15.9695705,21.7494704 15.8922889,21.8353339 15.8922889,21.9029839 C15.8530632,22.1375564 15.8418201,22.3760328 15.8588003,22.6133087 C15.9669945,23.308022 16.0983731,24.0001334 16.2245997,24.6948467 C16.2349039,24.7416813 16.2606644,24.785914 16.2606644,24.8327486 C16.9922633,26.9142866 17.8423606,28.8969515 19.6687817,30.2967858 C20.4415974,30.8900242 20.469934,31.4052048 19.9547235,32.2144027 C19.4214807,33.075639 18.847021,33.9212639 18.3318105,34.7955098 L18.3318105,34.7955098 L19.0324968,34.7955098 L19.0891699,34.688831 C19.4704257,34.0435542 19.8722899,33.4242967 20.271578,32.7712141 C20.6708661,32.1181316 21.0495458,31.4572433 21.4668663,30.8171703 C21.5830249,30.6451713 21.7553699,30.5199104 21.9537402,30.4633089 L21.9537402,30.4633089 L22.0593583,30.4424935 C22.1814848,30.4187449 22.3068711,30.4626767 22.3882028,30.5577112 C22.4695345,30.6527458 22.4944298,30.784415 22.4534943,30.9030338 C22.3349959,31.2490895 22.2345299,31.6133586 22.144368,31.9854335 C21.9408599,32.8180487 21.7837207,33.6792851 21.5853647,34.4468522 C21.8532741,34.3922118 21.9795007,34.4078234 22.2577143,34.3505811 C22.3659085,33.6948966 22.6132096,32.773816 22.8038374,32.0478797 C22.8939993,31.6966201 23.0691708,30.7729376 23.3396563,30.4711146 C23.6101418,30.1692916 24.455087,29.9195071 25.1248606,29.5916648 C25.259552,29.521031 25.4035508,29.4702128 25.5524853,29.4407533 C25.690899,29.4273015 25.8304943,29.4334318 25.9672298,29.4589668 C26.2744322,29.50662 26.577574,29.5779474 26.8740002,29.6723244 C27.7680551,30.055132 28.5179504,30.715943 29.0146997,31.5587182 C29.5402144,32.4303623 30.4804735,33.1068621 31.2532892,33.7677504 C31.628552,34.0906944 32.1338299,34.2134496 32.6134449,34.0981946 L32.6134449,34.0981946 L32.6289012,34.0981946 C33.0874385,34.4078234 33.9658723,34.6628118 34.3754647,34.5092983 C34.785057,34.3557849 35.3904293,34.0461561 35.3904293,33.5491889 C35.4766121,33.5088611 35.5571621,33.4572463 35.6300022,33.3956755 C35.8134616,33.2243511 35.8337495,32.9386054 35.6763711,32.742593 C35.1482804,31.8553374 33.950416,31.4572433 33.1466877,30.8718107 C32.0166594,30.0530724 30.90037,29.2100495 29.7978196,28.342742 C29.5972252,28.2009354 29.4176711,28.0309677 29.2645768,27.8379691 C28.9090816,27.3514096 28.9039294,26.6228713 28.7107255,26.0504483 C28.4927347,25.3953908 28.1802432,24.7764057 27.7833467,24.213491 C27.477641,23.7957171 27.194714,23.3614188 26.9358254,22.9125298 C26.2093787,21.6401897 25.488084,20.3678496 24.3417407,19.4259536 C23.71576,18.910773 23.767281,18.2680981 23.7853134,17.534356 C23.810082,16.631657 23.5881497,15.7395141 23.1438764,14.9558508 C22.1675525,13.23598 20.3514356,12.5022379 18.4709174,12.3539283 C18.1433082,12.3367964 17.8252523,12.2365736 17.5461146,12.062513 C17.1573639,11.762841 16.7937649,11.4312712 16.4590205,11.0711805 C15.2603296,9.86274697 13.7382138,9.03435871 12.0797314,8.68781952 Z M91.1705672,11.8949347 C91.6241879,11.8804547 92.0739321,11.985515 92.4776569,12.2002711 C92.7872255,12.3869502 93.0415941,12.6578129 93.2132153,12.9835253 C93.3974019,13.3515287 93.5122178,13.7525186 93.5515209,14.1650443 C93.6057861,14.6612292 93.6280475,15.1606109 93.6181569,15.6598651 C93.5989083,16.4319604 93.4533177,17.1950727 93.1875861,17.9166992 C92.8929128,18.7281411 92.5310468,19.5116599 92.1060334,20.2584965 C91.6548269,21.0498249 91.1593373,21.8131412 90.622102,22.5445368 C90.0813257,23.2959298 89.5302976,24.0074963 88.9869583,24.668616 L88.9869583,24.668616 L88.866501,24.8146464 L89.3278268,25.1544991 L89.4277808,25.0270543 C89.7848001,24.5665044 90.1736815,24.1334659 90.591347,23.731366 C90.8439748,23.4664901 91.1832062,23.3092455 91.5421907,23.2906196 C91.9329671,23.2888015 92.3173733,23.3931657 92.6570614,23.5933009 C92.9833785,23.7964078 93.2653018,24.0676737 93.484885,24.3898306 C93.7173119,24.7325144 93.8907328,25.114288 93.9974692,25.5182476 C94.1155731,25.9498995 94.1717046,26.3972099 94.1640591,26.8457971 C94.1589332,27.2387518 94.1384299,27.6184309 94.102549,27.9742142 C94.0677461,28.3200299 94.0077739,28.6626276 93.9231445,28.9990824 C93.8380824,29.3391818 93.7257786,29.6713362 93.5874018,29.9920895 C93.4285515,30.3472851 93.2416785,30.6882949 93.028685,31.0116475 L93.028685,31.0116475 L92.6288693,31.6249753 L93.2516591,31.2612268 C93.5335805,31.0992657 93.8026872,30.9505802 94.0897343,30.7939293 C94.3767815,30.6372785 94.6638287,30.4673522 94.9611275,30.2788401 C95.2584264,30.0903281 95.5557252,29.8779202 95.8478983,29.6495817 C96.1156894,29.4411323 96.3723593,29.2177753 96.6167746,28.9804967 L96.6167746,28.9804967 L96.6552184,28.9433253 L96.7039139,28.7256072 C96.7244173,28.6432992 96.7449207,28.5530258 96.767987,28.4600973 C96.9371398,27.7564961 97.1062925,27.0688255 97.3087633,26.359914 C97.5112341,25.6510026 97.6803869,24.9978482 97.8213475,24.4243469 C97.8689726,24.2535375 97.9654859,24.1017092 98.098143,23.9889106 C98.2510732,23.8544357 98.4242251,23.746808 98.6107273,23.6702987 C98.8019212,23.5876671 99.0013245,23.5271193 99.205325,23.489752 C99.3895954,23.4543196 99.5766242,23.4365438 99.7640418,23.43665 C100.120288,23.4419602 100.248434,23.5269234 100.292004,23.5773703 C100.377972,23.6797986 100.420471,23.8137943 100.409898,23.9490841 C100.393704,24.1890913 100.353333,24.4266868 100.289441,24.6579956 C100.207427,24.9872278 100.120288,25.3536315 99.9895788,25.7598617 C99.8588699,26.1660918 99.7358497,26.6068382 99.6025778,27.0874112 C99.4693059,27.5679841 99.3385969,28.0379366 99.2130137,28.5211646 C99.0874306,29.0043926 98.9849138,29.4770002 98.9003374,29.925712 C98.8219193,30.3397697 98.7764881,30.7598046 98.7645025,31.1815738 C98.7494115,31.4896761 98.7876016,31.7980924 98.8772711,32.0922728 C98.9640626,32.3672173 99.2187356,32.5471032 99.497498,32.5303641 C99.8511443,32.5207215 100.196366,32.4164486 100.4996,32.2276828 C100.866653,32.0172332 101.217909,31.7784861 101.550398,31.5134612 C101.896392,31.2373309 102.242387,30.9479251 102.575566,30.6532091 L102.575566,30.6532091 L102.801103,30.4540767 L102.801103,30.3850441 C102.834421,30.1168791 102.870302,29.8407488 102.908746,29.5539981 C102.983071,29.0574946 103.067647,28.531785 103.165038,27.995455 C103.262429,27.459125 103.362383,26.9732419 103.467463,26.4847037 C103.572543,25.9961655 103.680185,25.5527639 103.782702,25.1571542 C103.866773,24.8272758 103.969466,24.5027954 104.090253,24.1853879 C104.138036,24.052717 104.19722,23.9247586 104.267094,23.8030537 C104.310312,23.7296299 104.366891,23.665606 104.433684,23.6145417 C104.502572,23.5687877 104.580545,23.539744 104.661784,23.5295785 C104.798581,23.5114009 104.936611,23.5051837 105.074414,23.5109928 C105.219484,23.5095043 105.364405,23.521053 105.507548,23.5455091 C105.561659,23.5492501 105.611815,23.5761921 105.645946,23.6198519 C105.68703,23.6922338 105.708296,23.774847 105.707456,23.8588108 L105.707456,23.8588108 L105.707456,24.4243469 L105.692078,25.4863865 L105.692078,25.4863865 L105.692078,26.8882787 L106.084205,26.8882787 L106.132901,26.7926952 C106.290093,26.4723132 106.466935,26.1183 106.663426,25.7306556 C106.85249,25.3561246 107.074709,25.0005858 107.327222,24.668616 C107.564185,24.3607972 107.845062,24.0922017 108.160171,23.8720863 C108.462851,23.6626893 108.82164,23.5576858 109.18534,23.5720601 C109.309932,23.5719385 109.43342,23.596263 109.549275,23.6437478 C109.660944,23.6868734 109.763603,23.7517657 109.851699,23.8349149 C109.937966,23.9161217 110.006174,24.0157729 110.051607,24.1269758 C110.101923,24.2530697 110.125521,24.3888849 110.120806,24.5252406 C110.111727,24.7034676 110.091178,24.8808683 110.059296,25.0562604 L110.059296,25.0562604 L110.059296,25.0854665 C110.018289,25.3164601 109.97472,25.5447986 109.926024,25.8103085 C109.877329,26.0758184 109.828633,26.333363 109.787626,26.5802872 C109.748509,26.7949637 109.725374,27.0124371 109.718428,27.2307865 C109.709035,27.4864071 109.734925,27.7421074 109.795315,27.9901448 C109.839434,28.1805508 109.917677,28.3606794 110.025978,28.5211646 C110.120338,28.6508898 110.244581,28.7540421 110.38735,28.8211908 C110.517368,28.8805821 110.657884,28.9113236 110.79998,28.9114642 C111.188565,28.9123076 111.573502,28.8338145 111.932791,28.6804705 C111.981487,28.6618849 112.02762,28.637989 112.073752,28.6167482 L112.073752,28.6167482 L112.21215,28.5530258 L112.240342,28.4893034 C112.324918,28.2822057 112.401806,28.1149345 112.481257,27.9582836 C112.727323,27.4849212 113.021138,27.0399178 113.357776,26.6307341 C114.045277,25.7928141 114.920983,25.1427288 115.907882,24.7376485 C116.111885,24.6542253 116.320747,24.5841696 116.533235,24.5278957 C117.171587,24.3718225 117.646489,23.8171465 117.719867,23.141934 C117.773689,22.4994001 117.855702,21.8568661 117.963345,21.2249526 C118.122226,20.2828461 118.337065,19.3517926 118.606638,18.4370986 C118.854064,17.6023177 119.160742,16.7876357 119.524164,15.9997177 C119.830395,15.3272783 120.204076,14.6900866 120.639035,14.0986669 C120.995578,13.6148803 121.428902,13.1973946 121.920495,12.8640458 C122.314468,12.5921789 122.777277,12.4471418 123.250651,12.4471953 C123.542104,12.44201 123.827273,12.5352041 124.063097,12.7127052 C124.297072,12.9044054 124.484834,13.1498215 124.611562,13.4295819 C124.7654,13.7652164 124.868275,14.1234525 124.91655,14.4916215 C124.979393,14.9158586 125.006832,15.3449165 124.998563,15.7740343 C124.993438,16.0395442 124.97806,16.3209847 124.952431,16.6103905 C124.844051,17.6619635 124.645931,18.701518 124.360396,19.7168563 C124.085654,20.6894387 123.76229,21.6465661 123.391612,22.5843633 C123.019988,23.5136479 122.627861,24.4323122 122.184476,25.3509764 C121.741091,26.2696407 121.315646,27.2360967 120.903015,28.2264486 C120.853045,28.3626363 120.811107,28.5018428 120.777432,28.6432992 C120.736426,28.8079153 120.695419,28.9778416 120.656975,29.174319 C120.618531,29.3707963 120.585213,29.5646185 120.559584,29.7531305 C120.534196,29.9468041 120.519648,30.1418374 120.516014,30.3372523 C120.512916,30.5624912 120.523187,30.7877144 120.546769,31.0116475 C120.567957,31.2147236 120.612704,31.4144122 120.680041,31.6063896 C120.738363,31.7799375 120.835904,31.9365185 120.964526,32.0630667 C121.099064,32.1896921 121.274846,32.2589297 121.456606,32.2568889 C121.636891,32.2580381 121.816128,32.2284363 121.987131,32.1692706 C122.183547,32.1035472 122.37465,32.0218707 122.558663,31.9250015 C122.748319,31.8267629 122.958478,31.7046283 123.155823,31.5771836 C123.353168,31.4497388 123.54795,31.3169839 123.735043,31.1842289 C124.050283,30.9558904 124.268131,30.9054435 124.462913,31.0143026 C124.622421,31.1202388 124.748145,31.2726541 124.824285,31.4523939 C124.898348,31.6030662 124.951005,31.7640356 124.980623,31.9303117 C124.997159,32.0500083 124.998021,32.1714697 124.983186,32.2914052 C124.906298,32.8834923 124.309138,33.2392755 123.781176,33.5525772 L123.781176,33.5525772 L123.558202,33.6853322 C123.332665,33.8260524 123.107128,33.9614625 122.86365,34.0915623 C122.620173,34.2216622 122.381821,34.3411416 122.151158,34.4393803 C121.93084,34.5348221 121.704838,34.6155258 121.474547,34.6809943 C121.287039,34.7367722 121.092974,34.7653651 120.89789,34.7659574 C120.749905,34.755208 120.603196,34.7303214 120.45963,34.6916147 C120.235591,34.6305842 120.021432,34.5357564 119.824026,34.4101742 C119.565261,34.2424395 119.332042,34.0357312 119.132037,33.7968463 C118.87384,33.4822652 118.671644,33.1226643 118.534876,32.7348067 L118.534876,32.7348067 L118.442611,32.4931927 L118.260644,32.6710843 C117.975962,32.9534338 117.676502,33.2193454 117.363621,33.467614 C117.058723,33.7081019 116.734626,33.9212786 116.394837,34.1048378 C116.072683,34.2795248 115.735474,34.4226375 115.387609,34.5323087 C115.063688,34.634074 114.726524,34.683333 114.38807,34.6783392 C113.96885,34.6827905 113.556239,34.5699655 113.193749,34.351762 C112.857205,34.1384589 112.570881,33.8500008 112.355673,33.5074405 C112.125897,33.1376596 111.958621,32.7300208 111.86103,32.3020256 C111.774774,31.9294376 111.72582,31.5486311 111.714943,31.1656432 L111.714943,31.1656432 L111.714943,30.9293394 L111.420207,31.0302332 C111.378398,31.0471745 111.335597,31.0613633 111.292061,31.0727147 C111.002039,31.1627429 110.700316,31.2057332 110.397602,31.2001595 C109.946033,31.214129 109.500446,31.0904167 109.116141,30.8443762 C108.792449,30.6153619 108.528343,30.3070997 108.347265,29.9469528 C108.14751,29.5458234 108.005884,29.1163981 107.926946,28.6725053 C107.837243,28.1998976 107.765482,27.7060492 107.71166,27.2068906 L107.71166,27.2068906 L107.69372,27.0528949 L107.242646,27.0528949 L105.0616,33.0481084 C104.953957,33.3454795 104.848877,33.5950588 104.756612,33.788881 C104.681978,33.9498444 104.590901,34.1020548 104.484943,34.2429029 C104.416432,34.3331978 104.328724,34.405888 104.22865,34.4553109 C104.130097,34.4958513 104.024514,34.5148347 103.918537,34.5110679 C103.686601,34.5203781 103.457522,34.4554864 103.262429,34.325211 C103.097708,34.1989167 102.968529,34.0293442 102.888243,33.8340177 C102.79107,33.5964424 102.729699,33.3448143 102.706275,33.0879349 C102.688335,32.9950064 102.688335,32.9100432 102.688335,32.822425 L102.688335,32.822425 L102.667831,32.4666417 L102.411539,32.6471884 C102.334652,32.7029455 102.257764,32.7613577 102.175751,32.8171148 C101.756966,33.1157111 101.317517,33.3819415 100.860972,33.6136445 C100.39968,33.8480929 99.9215454,34.0451601 99.430862,34.2030765 C98.9936861,34.349093 98.5369718,34.4225732 98.0776397,34.4207946 C97.7588112,34.423562 97.4423303,34.3641143 97.1447364,34.245558 C96.9169896,34.1510674 96.7153584,33.99965 96.5578274,33.8048116 C96.4026482,33.6040444 96.2947195,33.3686061 96.2425881,33.117141 C96.1758281,32.8105951 96.1457013,32.4967089 96.1528859,32.1825461 C96.1554488,32.0736871 96.1682634,31.9595178 96.1682634,31.8426935 L96.1682634,31.8426935 L96.1887668,31.5028408 L95.9094084,31.6807324 C95.5794204,31.8943937 95.2370502,32.0868097 94.8842399,32.2568889 C94.4435089,32.4653629 93.9896942,32.6427729 93.5258917,32.7879087 C93.3413614,32.8463209 93.1440164,32.8888025 92.9364198,32.9339391 C92.5940686,32.9925888 92.2594847,33.0923861 91.9394435,33.2313102 C91.4577388,33.4803949 90.9571499,33.6881873 90.4426975,33.8526034 C89.7858347,34.0362879 89.0962075,34.0554001 88.4308044,33.9083605 C88.2590887,33.8738442 88.087373,33.8446381 87.9182202,33.815432 C87.3666103,33.7415596 86.825977,33.5970809 86.3087057,33.385306 L86.3087057,33.385306 L86.0677911,33.2844122 C85.8473799,33.1782082 85.5142002,33.0534186 85.2117755,32.9126983 L85.2117755,32.9126983 L85.1220732,32.8702168 L85.0426227,32.9286289 C84.7259094,33.1586628 84.3945359,33.3662345 84.0507722,33.5499221 C83.7068004,33.7317545 83.3473102,33.8801891 82.9769082,33.9933236 C82.6019192,34.1036172 82.213354,34.1563947 81.8235937,34.1499745 C81.4775994,34.1420092 81.1879893,33.8552585 80.9316971,33.2923775 C80.6651533,32.6870149 80.5421331,31.7816262 80.5600736,30.6054173 C80.5710513,30.0991985 80.6086969,29.593978 80.6728421,29.0920109 C80.742041,28.558336 80.8240545,27.9821795 80.9291342,27.3316803 L80.9291342,27.3316803 L80.9598893,27.1298927 L80.4780601,27.1298927 L77.3359188,33.3401693 C77.2382614,33.574475 77.0793705,33.775864 76.8771559,33.921636 C76.7006373,34.0241081 76.5001035,34.0737466 76.2979357,34.0650113 C76.0661518,34.0729649 75.8374564,34.0081819 75.6418279,33.8791544 C75.4763019,33.7526045 75.346987,33.5819357 75.2676414,33.385306 C75.1698815,33.1479357 75.1084866,32.8962114 75.085674,32.6392232 C75.0869107,32.6242049 75.0869107,32.6091048 75.085674,32.5940865 L75.085674,32.5940865 L75.0574819,32.2621991 L74.7781235,32.4427458 C74.4808246,32.6179824 74.1578965,32.8011842 73.8195909,32.9737656 C73.485869,33.1445865 73.1436693,33.2970246 72.7944225,33.4304427 C72.468707,33.5575091 72.1346857,33.6604323 71.7948832,33.7384341 C71.5000818,33.8102742 71.1981431,33.8459207 70.8952979,33.8446381 C70.664819,33.8473431 70.4374009,33.7898135 70.2340642,33.6773669 C70.0476565,33.5621116 69.8876312,33.4062957 69.7650497,33.2206898 C69.6173172,32.9966107 69.5016428,32.7515755 69.4216182,32.4931927 C69.3154029,32.1764442 69.2297806,31.8526829 69.1653261,31.5240816 L69.1653261,31.5240816 L69.0935643,31.1523677 L68.8680273,31.4497388 C68.5997029,31.800056 68.3085588,32.1309459 67.9966341,32.4400907 C67.7110338,32.726157 67.4023605,32.9864184 67.0739825,33.2180347 C66.7839229,33.4247788 66.4706517,33.5941806 66.1410792,33.7225035 C65.858828,33.8345903 65.5591492,33.8921823 65.2568714,33.8924299 C65.0349665,33.8895256 64.8153583,33.845463 64.6084523,33.76233 C64.4085559,33.6753006 64.2324868,33.5384994 64.0958681,33.3640652 C63.9281283,33.1405334 63.8060486,32.8839793 63.7370591,32.6100171 C63.6395741,32.2174723 63.5981273,31.8122496 63.6140389,31.4072572 C63.6452295,30.6380055 63.7308904,29.8721639 63.870331,29.1159068 C63.9549074,28.5928523 64.0548613,28.0246611 64.162504,27.4192985 L64.162504,27.4192985 L64.2342658,27.0157235 L61.8353716,28.6459543 L61.8533121,28.7601235 C61.8942459,29.0154189 61.9131154,29.2739882 61.9096963,29.5327573 C61.9069138,30.0880169 61.8052581,30.6379787 61.6098346,31.1550228 C61.4270535,31.6389925 61.1671503,32.087744 60.8409582,32.4825723 C60.5069405,32.8772225 60.1203218,33.2205286 59.6927695,33.5021303 C59.2495156,33.7976198 58.7747904,34.0390647 58.2780371,34.2216622 C57.7637973,34.4115414 57.2335193,34.5511012 56.6941518,34.6385127 C56.1442199,34.7295268 55.5876418,34.7703949 55.030816,34.7606472 C54.2607518,34.7491982 53.4951853,34.6367903 52.7523791,34.4261048 C52.0513702,34.2316979 51.3868688,33.9166671 50.7866185,33.494165 C50.2244341,33.0945863 49.7551735,32.5703555 49.4128928,31.9595178 C49.0612411,31.3057964 48.8892757,30.5647279 48.9156861,29.8168529 C48.9153473,29.4331672 48.9885229,29.0532276 49.1309715,28.6990562 C49.2554382,28.4044696 49.4289419,28.1348536 49.6435557,27.9025265 C49.8290748,27.6997241 50.0510904,27.5364687 50.2971006,27.4219536 C50.5048841,27.3153918 50.7341988,27.26169 50.966023,27.2653028 C51.1651164,27.2619498 51.3587825,27.3325947 51.5119252,27.4644352 C51.6731798,27.6170128 51.7557715,27.8392777 51.7348994,28.0644876 C51.7335336,28.1879178 51.7189205,28.3108078 51.6913297,28.4308912 C51.6631376,28.5609911 51.6375084,28.6884358 51.6067533,28.826501 C51.5759982,28.9645661 51.5478061,29.121217 51.519614,29.2991086 C51.4923844,29.481882 51.4778239,29.6664409 51.4760443,29.8513692 C51.4560866,30.2425777 51.5450463,30.6314897 51.7323364,30.971821 C51.9190968,31.2936187 52.1752437,31.5662483 52.4807094,31.7683507 C52.8193746,31.9891499 53.1908498,32.1506195 53.5802026,32.2462685 C54.0083041,32.354221 54.4467391,32.4121098 54.8872924,32.4188499 C55.4249717,32.4243197 55.9615072,32.3664205 56.4865552,32.2462685 C56.9894121,32.1339312 57.4731909,31.9441993 57.921791,31.6833875 C58.3207332,31.4510036 58.6696,31.1365733 58.9469595,30.7594131 C59.206742,30.3958559 59.347711,29.9558782 59.3493381,29.5035512 C59.3605491,29.0864678 59.2478228,28.6758823 59.02641,28.3273424 C58.7760252,27.9490021 58.4678622,27.6154076 58.1140101,27.3396456 C57.6985601,27.0110568 57.2579929,26.7180293 56.7966686,26.4634629 C56.2994619,26.1846775 55.7945665,25.9085472 55.2742935,25.6191414 C54.7540205,25.3297356 54.2388733,25.0270543 53.7493554,24.7190628 C53.2699193,24.4184648 52.8201078,24.0698621 52.4063847,23.678264 C52.0239694,23.3138239 51.7041703,22.884659 51.4606668,22.4091267 C51.2171218,21.9170632 51.0989098,21.3687188 51.1172354,20.8160673 C51.1294669,20.2469828 51.269889,19.688732 51.5273027,19.1858365 C51.8154798,18.6227277 52.2218413,18.1337052 52.7164982,17.7547382 C53.3003967,17.3095318 53.9553958,16.9742978 54.6515036,16.7643863 C55.5261755,16.5028113 56.4353014,16.3863155 57.3451338,16.4192234 C57.9958807,16.4306866 58.641264,16.5434617 59.2596359,16.7537659 C59.8568589,16.9551265 60.418599,17.2555135 60.9229717,17.643224 C61.3959181,18.0102746 61.7932672,18.4715642 62.0916637,18.9999796 C62.3867494,19.5285194 62.5348859,20.1313496 62.5196716,20.7417246 C62.5111722,21.134708 62.4419504,21.5237427 62.3146379,21.8940375 C62.1655055,22.32019 61.9620901,22.7237943 61.7097885,23.0941423 C61.4795925,23.46242 61.1753637,23.7748736 60.8178919,24.0101514 C60.5600339,24.1850192 60.2619738,24.2858079 59.9541875,24.3022123 C59.7565316,24.3103518 59.5638508,24.236811 59.418537,24.0977697 C59.2761031,23.944021 59.2050434,23.7338297 59.223755,23.5216132 C59.2326996,23.3096763 59.2751233,23.1006921 59.3493381,22.9029751 C59.453874,22.622517 59.5888681,22.355289 59.7517167,22.1064454 C59.9017825,21.8732321 60.027231,21.6239929 60.1259032,21.3630177 C60.2026311,21.152236 60.2450684,20.9297264 60.2514864,20.7045532 C60.2617486,20.4157609 60.1827325,20.1311182 60.0259493,19.8920929 C59.8511161,19.6411623 59.6231803,19.4349993 59.3595898,19.2893854 C59.0300133,19.1070236 58.6757585,18.9772324 58.3087921,18.904396 C57.8587528,18.8122853 57.4014678,18.7634012 56.9427551,18.7583656 C56.459752,18.7422782 55.977077,18.7995273 55.5100822,18.9282919 C55.1447781,19.0278354 54.7982262,19.1902901 54.4849138,19.4088649 C54.2407804,19.5781554 54.0366595,19.8023235 53.8877531,20.0646743 C53.7640032,20.2814559 53.6952317,20.5271597 53.6878453,20.7788959 C53.6720204,21.1612178 53.7763413,21.538541 53.9851441,21.854211 C54.238685,22.2116148 54.5468759,22.5237153 54.8975441,22.7781855 C55.3146823,23.0887844 55.7542349,23.3657294 56.2123226,23.6065764 L56.2123226,23.6065764 L57.7346978,24.427002 C58.2626595,24.7084425 58.7752438,25.0111237 59.2724505,25.3323907 C59.7561694,25.6434871 60.2048908,26.0094976 60.6102953,26.4236364 C60.8102957,26.6258302 60.9913628,26.8471917 61.1510717,27.0847561 L61.1510717,27.0847561 L61.2612773,27.244062 L65.3183815,23.463201 L65.3491365,23.463201 L65.4106466,23.3915133 C65.5241675,23.2520021 65.6582351,23.13193 65.8078994,23.0357301 C65.9781717,22.9294096 66.1729368,22.8725472 66.3717421,22.8711139 C66.6443542,22.8707573 66.9146482,22.9229789 67.1688105,23.0251097 C67.2738903,23.0835219 67.3354004,23.1392789 67.3354004,23.1976911 C67.2610757,23.6118866 67.1790622,24.0632534 67.0919229,24.5756875 C67.0047836,25.0881216 66.9073926,25.6032108 66.8228162,26.1236102 C66.7382398,26.6440096 66.6511005,27.137858 66.5665241,27.6423268 C66.4819477,28.1467957 66.407623,28.5822319 66.340987,28.9698763 C66.2743511,29.3575208 66.2205297,29.6708225 66.1820859,29.9071263 C66.1362381,30.194172 66.1260497,30.2595661 66.1237856,30.284449 L66.1231387,30.3000809 C66.1206475,30.4496362 66.1326682,30.5990723 66.1590196,30.7461376 C66.1850466,30.8843934 66.2290153,31.0183641 66.2897286,31.1444024 C66.3518514,31.2663693 66.4393987,31.3724835 66.5460207,31.455049 C66.6601924,31.5428068 66.7985448,31.5902726 66.9407106,31.590459 C67.1468748,31.5903053 67.3502691,31.5412609 67.5353083,31.4470837 C67.7398842,31.3393918 67.9260298,31.1976765 68.0863363,31.0275781 C68.2674,30.8303063 68.4209528,30.6077794 68.5425363,30.3664584 C68.6807441,30.0850763 68.7824335,29.7859987 68.844961,29.4770002 L68.844961,29.4770002 L70.0700373,23.4791316 C70.0982294,23.3490318 70.2238126,23.2295523 70.4442238,23.1286585 C70.7130277,23.0076198 71.0048355,22.9513352 71.2976765,22.9640424 C71.588529,22.9533245 71.876897,23.0229693 72.1331888,23.1658299 C72.3664146,23.3145155 72.3894809,23.4658561 72.3894809,23.5640948 C72.3805718,23.8487747 72.3540337,24.1325686 72.3100304,24.4137265 C72.2613349,24.7695097 72.1972619,25.1757399 72.1152484,25.6111761 C72.0332349,26.0466123 71.9512214,26.4953241 71.8589563,26.9599664 C71.7666911,27.4246087 71.6821147,27.8494246 71.6026641,28.2609649 C71.5232136,28.6725053 71.4591406,29.0203232 71.4078821,29.3230045 C71.3667039,29.5403205 71.3401564,29.7603389 71.3284316,29.9814691 L71.3284316,29.9814691 L71.3284316,30.6001071 C71.3306039,30.7791982 71.3529675,30.9574131 71.3950675,31.1311269 C71.4308103,31.2850683 71.5071155,31.4257031 71.6154788,31.5373571 C71.7437626,31.6504447 71.9085075,31.7092311 72.0768046,31.7019732 C72.3049563,31.6971651 72.5308523,31.6541269 72.745727,31.5745285 C73.0182114,31.4783156 73.2837209,31.3620811 73.5402325,31.2267105 C73.8195909,31.08068 74.1066381,30.9160639 74.3911224,30.7355172 C74.6140965,30.5947969 74.8396336,30.4381461 75.0805482,30.2549443 L75.0805482,30.2549443 L75.1420583,30.2098076 L75.1676875,29.9442977 C75.2368863,29.2645923 75.3240257,28.5742666 75.4239796,27.8706654 C75.5239335,27.1670641 75.6418279,26.492669 75.7648481,25.8395146 C75.8878683,25.1863603 76.0083256,24.6261344 76.1185312,24.1721125 C76.1923022,23.8599018 76.3495259,23.5755547 76.5721683,23.3516869 C76.8070841,23.1310567 77.1199087,23.0214288 77.4358727,23.0490056 C77.7089952,23.0193099 77.9766705,23.1427803 78.1381131,23.3729277 C78.2893032,23.6651035 78.3585504,23.9952809 78.3380209,24.3261082 C78.3323026,24.4798692 78.318614,24.6332009 78.2970142,24.7854403 C78.271385,24.9845727 78.2406299,25.1996358 78.2021861,25.4412498 C78.1637423,25.6828638 78.1227356,25.929788 78.0817288,26.1846775 C78.0407221,26.439567 78.0022783,26.6758708 77.9638344,26.8935889 C77.9253906,27.111307 77.8946356,27.2998191 77.8690064,27.4617801 C77.8478841,27.577622 77.833336,27.6946471 77.8254367,27.8122532 L77.8254367,27.8122532 L77.8254367,27.9901448 L78.3252063,27.9901448 L78.3739018,27.8998714 C78.4225973,27.8122532 78.496922,27.6715329 78.5994389,27.4803658 L78.5994389,27.4803658 L78.953122,26.8165911 C79.0863939,26.5510812 79.2273546,26.2855713 79.3811298,26.0200614 C79.5349051,25.7545515 79.6784287,25.4757661 79.8117006,25.2235317 C79.9449725,24.9712973 80.0551781,24.7456138 80.1756354,24.5517916 C80.2960927,24.3579694 80.3755433,24.214594 80.4319275,24.1216656 C80.6088767,23.7850268 80.8758523,23.5084492 81.2008039,23.3251359 C81.5052159,23.1811179 81.8376756,23.1120528 82.172151,23.1233483 C82.484346,23.1190698 82.7759716,23.2842255 82.9410273,23.5587846 C83.1603952,23.945085 83.2605515,24.3916172 83.2280745,24.8385423 C83.2192153,24.9752338 83.2003665,25.1110329 83.1716902,25.2447724 C83.1358093,25.4439049 83.0896768,25.6934842 83.0307296,25.9749247 C82.9717824,26.2563652 82.9102723,26.5643566 82.8385105,26.9068644 C82.7667487,27.2493722 82.7026757,27.5971902 82.6437285,27.9529734 C82.5847813,28.3087567 82.5335229,28.6671951 82.495079,29.015013 C82.4558427,29.3392591 82.4327458,29.6653829 82.4258802,29.9920895 C82.4083421,30.4239616 82.4656314,30.8555957 82.595033,31.266537 C82.6725278,31.6078745 82.9615281,31.8528336 83.2998363,31.8639342 C83.4612929,31.8599022 83.6201616,31.8210173 83.7662879,31.749765 C83.9429951,31.6678529 84.114236,31.573831 84.2788722,31.4683245 C84.3711373,31.4072572 84.4710913,31.3382246 84.5838598,31.2559166 L84.5838598,31.2559166 L84.6453699,31.2081248 L84.6453699,31.1284718 C84.6658733,30.8974782 84.6863766,30.6611744 84.7120058,30.4142502 C84.7837676,29.7265796 84.8811586,28.8928785 85.0016159,27.9635938 C85.1220732,27.0343092 85.2835373,25.9775798 85.4834451,24.8199566 C85.616717,24.0579432 85.7833069,23.1870707 85.9806518,22.2445106 C86.1779967,21.3019504 86.4112226,20.3328393 86.6700776,19.3743486 C86.9289326,18.4158578 87.2236686,17.4679875 87.5440337,16.5572885 C87.8326885,15.7246447 88.1858119,14.9175237 88.5999572,14.1438035 C88.9236284,13.5249744 89.3387088,12.9623792 89.8301594,12.4764014 C90.1842361,12.1051579 90.6667936,11.8958253 91.1705672,11.8949347 Z M117.473827,25.7625168 L117.417443,25.823584 C116.90133,26.0652686 116.428921,26.3966232 116.020651,26.8033156 C115.623143,27.2101466 115.278517,27.6689179 114.995482,28.1680364 C114.727302,28.6354798 114.512292,29.1335326 114.354752,29.6522368 C114.215194,30.0961879 114.136681,30.5582874 114.121526,31.024923 C114.118829,31.1969657 114.134298,31.3687982 114.167659,31.5373571 C114.20371,31.71745 114.276212,31.8875773 114.380381,32.0365157 C114.496733,32.1974743 114.65122,32.3245944 114.828892,32.4055744 C115.056342,32.5062656 115.301763,32.5560294 115.549073,32.5516049 L115.549073,32.5516049 L115.564451,32.5516049 C115.727743,32.5510435 115.888543,32.5100803 116.033465,32.4321254 C116.186757,32.3529501 116.329716,32.2539185 116.45891,32.1374094 C116.593824,32.0115206 116.718941,31.8748013 116.833097,31.7285242 C116.949965,31.5798272 117.057815,31.4237616 117.156025,31.2612268 C117.393702,30.8634148 117.599428,30.4460453 117.771126,30.0133302 L117.771126,30.0133302 L117.776252,29.978814 L117.776252,29.925712 C117.748587,29.7598983 117.733165,29.5921409 117.730119,29.4238983 C117.707053,29.1902496 117.707053,28.9220846 117.707053,28.6273686 L117.707053,26.2006081 C117.696801,25.9377533 117.694238,25.850135 117.578907,25.8023432 L117.578907,25.8023432 L117.473827,25.7625168 Z M90.3068627,25.6032108 C90.0089829,25.5994646 89.7134487,25.6581685 89.4380325,25.7757922 C89.1349218,25.9039185 88.8595728,26.0934848 88.6281494,26.333363 C88.3621936,26.6155678 88.1415544,26.9400541 87.9746045,27.2945089 C87.7697633,27.7366344 87.6273457,28.2069735 87.5517225,28.6910909 C87.4773978,29.1105966 87.4107618,29.5168267 87.3595034,29.8752651 C87.308245,30.2337035 87.2621124,30.515144 87.2287944,30.8311007 C87.1954764,31.1470575 87.1621585,31.455049 87.1365293,31.7205589 C87.1185888,31.8984505 87.2595495,31.9595178 87.8182663,32.1188237 C88.0950618,32.1984767 88.4179898,32.2940603 88.4923145,32.2940603 C88.6730747,32.3299026 88.8567389,32.3477493 89.0407797,32.3471623 C89.4922698,32.3574225 89.9370894,32.2330017 90.3222403,31.9887239 C90.7991356,31.6500158 91.1620212,31.1654746 91.3602233,30.6027622 C91.6231599,29.8587813 91.7953546,29.0836865 91.8728076,28.2954812 L91.872,28.298 C91.8982687,28.0780926 91.9158814,27.8492529 91.9256195,27.6200178 L91.9343177,27.2759232 C91.9371251,27.0724623 91.9173462,26.8693414 91.8753705,26.6705606 C91.8314837,26.4751203 91.7436704,26.2931772 91.6190784,26.1395408 C91.479874,25.9711753 91.3042422,25.8392626 91.1064941,25.7545515 C90.8514433,25.6527003 90.5802007,25.6013641 90.3068627,25.6032108 Z M122.699623,14.8367844 L122.686809,14.8367844 C122.346031,14.8629038 122.042555,15.0698187 121.884614,15.3837348 C121.644346,15.7758887 121.45478,16.1990051 121.320772,16.6422517 C121.14795,17.1867891 121.004209,17.7407736 120.890201,18.3016886 C120.764618,18.904396 120.662101,19.4832076 120.574962,20.0487437 C120.487822,20.6142798 120.421186,21.1160935 120.367365,21.5674603 C120.313544,22.0188272 120.277663,22.3400941 120.259722,22.5286062 C120.223841,22.9162506 120.190523,23.2906196 120.167457,23.6517131 C120.144391,24.0128065 120.12645,24.3393837 120.113636,24.6394099 C120.100821,24.9394361 120.088007,25.1996358 120.088007,25.420009 L120.088007,25.420009 L120.067,26.884 L120.403246,26.1050245 L120.403246,26.1156449 C120.851757,25.1013971 121.261824,24.0712187 121.656514,23.0649362 C121.812852,22.6427754 121.974317,22.1860984 122.140906,21.7002153 C122.307496,21.2143322 122.456146,20.7390695 122.594543,20.2584965 C122.732941,19.7779236 122.855961,19.2973507 122.958478,18.8327084 C123.056945,18.3886489 123.131386,17.9392368 123.181452,17.4865732 C123.237837,16.9316575 123.271155,16.4856009 123.271155,16.1590237 C123.295492,15.8335737 123.258942,15.5063169 123.163512,15.1952227 C123.098843,14.985223 122.912356,14.8411279 122.699623,14.8367844 L122.699623,14.8367844 Z M91.0296065,13.8305019 C90.7755513,13.8577826 90.5477494,14.0046674 90.4119425,14.2287667 C90.2067593,14.5206049 90.0347608,14.8359916 89.8993583,15.1686718 C89.7327684,15.5430407 89.5636156,15.9837871 89.4021516,16.4962213 C89.2406875,17.0086554 89.0817864,17.5290548 88.9305741,18.070695 C88.7793617,18.6123352 88.6281494,19.1964569 88.4974404,19.7487175 C88.3667314,20.3009781 88.2411483,20.8452734 88.1283797,21.3630177 C88.0156112,21.880762 87.9182202,22.337439 87.8362067,22.7595998 C87.7541933,23.1817605 87.6875573,23.516303 87.6388618,23.7818129 L87.6388618,23.7818129 L87.4312652,24.9235055 L87.9464123,23.9092577 C88.154009,23.5083377 88.3897977,23.0808668 88.6512157,22.6480856 C88.9126336,22.2153045 89.1740516,21.7586275 89.4482841,21.2780545 C89.7225167,20.7974816 89.9788088,20.3142536 90.2351009,19.815095 C90.491393,19.3159364 90.7271818,18.8008472 90.9399043,18.2698274 C91.1511775,17.7448895 91.3300871,17.2065931 91.4755548,16.6581823 C91.6208926,16.1045631 91.7178206,15.5385121 91.7651649,14.9668842 C91.7651649,14.9403332 91.7626019,14.8925415 91.7497873,14.7438559 C91.7359459,14.6195005 91.7075449,14.4973528 91.6652109,14.3801074 C91.6177775,14.249853 91.5483509,14.1293811 91.4601772,14.0243241 C91.3508802,13.8976518 91.1935712,13.8268389 91.0296065,13.8305019 Z" id="Combined-Shape" fill="url(#linearGradient-1)"></path>
            </g>
        </g>
    </g>
</svg>